<svg xmlns="http://www.w3.org/2000/svg" fill="none" viewBox="0 0 24 24" stroke-width="1.5" stroke="currentColor" width="24" height="24">
  <path stroke-linecap="round" stroke-linejoin="round" d="M15.182 16.318A4.486 4.486 0 0 0 12.016 15a4.486 4.486 0 0 0-3.198 1.318M21 12a9 9 0 1 1-18 0 9 9 0 0 1 18 0Z" />
  <path stroke-linecap="round" stroke-linejoin="round" d="M9.75 9.75c0 .414-.336.75-.75.75s-.75-.336-.75-.75.336-.75.75-.75.75.336.75.75ZM15.75 9.75c0 .414-.336.75-.75.75s-.75-.336-.75-.75.336-.75.75-.75.75.336.75.75Z" />
</svg>
